<?xml version="1.0" encoding="iso-8859-1"?>
<!-- Generator: Adobe Illustrator 17.1.0, SVG Export Plug-In . SVG Version: 6.00 Build 0)  -->
<!DOCTYPE svg PUBLIC "-//W3C//DTD SVG 1.1//EN" "http://www.w3.org/Graphics/SVG/1.1/DTD/svg11.dtd">
<svg version="1.1" id="Capa_1" xmlns="http://www.w3.org/2000/svg" xmlns:xlink="http://www.w3.org/1999/xlink" x="0px" y="0px"
	 viewBox="0 0 512.002 512.002" style="enable-background:new 0 0 512.002 512.002;" xml:space="preserve">
<g>
	<path d="M472.001,123.216L356.785,8c-4.636-4.636-12.758-8-19.313-8h-162.94c-6.555,0-14.678,3.364-19.313,8L40.001,123.216
		c-4.636,4.636-8,12.759-8,19.314V305.47c0,6.556,3.364,14.679,8,19.314L146.41,431.193L114.989,496H96.001c-4.418,0-8,3.582-8,8
		s3.582,8,8,8h23.959c0.012,0,0.023,0.002,0.035,0.002c0.009,0,0.019-0.002,0.028-0.002h39.978c4.418,0,8-3.582,8-8s-3.582-8-8-8
		h-27.23l25.819-53.251c4.64,3.156,10.774,5.251,15.941,5.251h162.94c5.167,0,11.302-2.095,15.941-5.251L379.231,496h-27.23
		c-4.418,0-8,3.582-8,8s3.582,8,8,8h39.978c0.009,0,0.019,0.002,0.028,0.002c0.012,0,0.023-0.002,0.035-0.002h23.959
		c4.418,0,8-3.582,8-8s-3.582-8-8-8h-18.988l-31.422-64.807l106.409-106.409c4.636-4.636,8-12.759,8-19.314V142.53
		C480.001,135.975,476.637,127.852,472.001,123.216z M168.001,384c0-5.906,3.225-11.062,7.998-13.834l-7.816,16.12
		C168.076,385.537,168.001,384.778,168.001,384z M192.001,336c0-5.468,2.76-10.299,6.957-13.186l-6.904,14.239
		C192.031,336.703,192.001,336.355,192.001,336z M343.818,386.286l-7.816-16.12c4.773,2.772,7.998,7.928,7.998,13.834
		C344.001,384.778,343.926,385.537,343.818,386.286z M256.001,320c8.822,0,16,7.178,16,16s-7.178,16-16,16s-16-7.178-16-16
		S247.179,320,256.001,320z M245.425,305.804c-1.438,0.505-2.829,1.111-4.166,1.808c1.016-1.305,1.935-2.688,2.741-4.142
		C244.444,304.269,244.918,305.049,245.425,305.804z M229.365,296.775l1.809-3.73C230.73,294.374,230.122,295.626,229.365,296.775z
		 M216.815,322.66c4.325,2.867,7.186,7.774,7.186,13.34c0,8.822-7.178,16-16,16c-1.753,0-3.436-0.294-5.016-0.817L216.815,322.66z
		 M193.354,371.046c4.018,2.909,6.647,7.625,6.647,12.954c0,8.822-7.178,16-16,16c-1.521,0-2.987-0.227-4.382-0.625L193.354,371.046
		z M232.001,368c8.822,0,16,7.178,16,16s-7.178,16-16,16s-16-7.178-16-16S223.179,368,232.001,368z M280.001,368
		c8.822,0,16,7.178,16,16s-7.178,16-16,16s-16-7.178-16-16S271.179,368,280.001,368z M318.648,371.046l13.735,28.329
		c-1.395,0.398-2.861,0.625-4.382,0.625c-8.822,0-16-7.178-16-16C312.001,378.671,314.63,373.956,318.648,371.046z M319.948,337.052
		l-6.904-14.239c4.197,2.887,6.957,7.719,6.957,13.186C320.001,336.355,319.971,336.703,319.948,337.052z M309.017,351.183
		c-1.58,0.523-3.263,0.817-5.016,0.817c-8.822,0-16-7.178-16-16c0-5.567,2.861-10.473,7.186-13.34L309.017,351.183z M272.001,304
		c-8.822,0-16-7.178-16-16c0-8.369,6.462-15.246,14.657-15.932l13.014,26.841C280.75,302.033,276.606,304,272.001,304z M256.001,232
		c-4.411,0-8-3.589-8-8s3.589-8,8-8s8,3.589,8,8S260.412,232,256.001,232z M253.101,247.819c0.951,0.115,1.918,0.181,2.9,0.181
		s1.948-0.066,2.9-0.181l4.536,9.355c-8.341,2.32-15.319,7.937-19.435,15.357c-0.498-0.897-1.037-1.768-1.616-2.61L253.101,247.819z
		 M208.897,302.315c-5.263-2.623-8.896-8.046-8.896-14.315c0-8.822,7.178-16,16-16c2.449,0,4.762,0.569,6.839,1.557L208.897,302.315
		z M345.471,428.686c-1.611,1.611-5.723,3.314-8,3.314h-162.94c-2.277,0-6.389-1.703-8-3.314l-0.756-0.756l6.809-14.043
		c3.549,1.36,7.396,2.113,11.418,2.113c9.551,0,18.132-4.211,24-10.868c5.868,6.657,14.449,10.868,24,10.868s18.132-4.211,24-10.868
		c5.868,6.657,14.449,10.868,24,10.868s18.132-4.211,24-10.868c5.868,6.657,14.449,10.868,24,10.868
		c4.022,0,7.869-0.753,11.418-2.113l6.809,14.043L345.471,428.686z M464.001,305.47c0,2.277-1.703,6.39-3.313,8L358.203,415.954
		l-5.59-11.529c4.61-5.546,7.388-12.667,7.388-20.425c0-16.435-12.456-30.01-28.423-31.795c2.806-4.757,4.423-10.294,4.423-16.205
		c0-17.645-14.355-32-32-32c-0.026,0-0.052,0.002-0.078,0.002l-2.12-4.372c1.413-3.608,2.197-7.528,2.197-11.63
		c0-14.403-9.566-26.61-22.678-30.611l-8.097-16.701c4.189-4.323,6.776-10.208,6.776-16.688c0-13.233-10.766-24-24-24
		s-24,10.767-24,24c0,6.48,2.586,12.365,6.776,16.688l-8.949,18.457C225.64,257.13,220.95,256,216.001,256
		c-17.645,0-32,14.355-32,32c0,7.832,2.833,15.012,7.522,20.58c-9.293,5.606-15.522,15.798-15.522,27.42
		c0,5.911,1.617,11.448,4.423,16.205c-3.988,0.446-7.754,1.629-11.165,3.407c4.219-5.422,6.741-12.226,6.741-19.612
		c0-17.645-14.355-32-32-32s-32,14.355-32,32s14.355,32,32,32c5.315,0,10.326-1.31,14.741-3.612
		c-4.219,5.422-6.741,12.226-6.741,19.612c0,7.759,2.777,14.88,7.388,20.425l-5.59,11.529L51.314,313.47
		c-1.61-1.61-3.313-5.723-3.313-8V142.53c0-2.277,1.703-6.39,3.313-8L166.531,19.314c1.611-1.611,5.723-3.314,8-3.314h162.94
		c2.277,0,6.389,1.703,8,3.314L460.688,134.53c1.61,1.61,3.313,5.723,3.313,8V305.47z M160.001,336c0,8.822-7.178,16-16,16
		s-16-7.178-16-16s7.178-16,16-16S160.001,327.178,160.001,336z"/>
	<path d="M152.001,240c-17.645,0-32,14.355-32,32s14.355,32,32,32s32-14.355,32-32S169.646,240,152.001,240z M152.001,288
		c-8.822,0-16-7.178-16-16s7.178-16,16-16s16,7.178,16,16S160.823,288,152.001,288z"/>
	<path d="M96.001,192c-17.645,0-32,14.355-32,32s14.355,32,32,32s32-14.355,32-32S113.646,192,96.001,192z M96.001,240
		c-8.822,0-16-7.178-16-16s7.178-16,16-16s16,7.178,16,16S104.823,240,96.001,240z"/>
	<path d="M240.001,56c-17.645,0-32,14.355-32,32s14.355,32,32,32s32-14.355,32-32S257.646,56,240.001,56z M240.001,104
		c-8.822,0-16-7.178-16-16s7.178-16,16-16s16,7.178,16,16S248.823,104,240.001,104z"/>
	<path d="M376.001,304c-17.645,0-32,14.355-32,32s14.355,32,32,32s32-14.355,32-32S393.646,304,376.001,304z M376.001,352
		c-8.822,0-16-7.178-16-16s7.178-16,16-16s16,7.178,16,16S384.823,352,376.001,352z"/>
	<path d="M136.001,192c17.645,0,32-14.355,32-32s-14.355-32-32-32s-32,14.355-32,32S118.356,192,136.001,192z M136.001,144
		c8.822,0,16,7.178,16,16s-7.178,16-16,16s-16-7.178-16-16S127.179,144,136.001,144z"/>
	<path d="M320.001,32h-16c-4.418,0-8,3.582-8,8s3.582,8,8,8h16c4.418,0,8-3.582,8-8S324.419,32,320.001,32z"/>
	<path d="M351.765,48.235c-3.123-3.122-8.188-3.123-11.313,0c-3.125,3.125-3.125,8.189,0,11.314l61.868,61.868
		c1.562,1.562,3.609,2.343,5.657,2.343c2.047,0,4.095-0.781,5.657-2.343c3.125-3.125,3.125-8.189,0-11.314L351.765,48.235z"/>
</g>
<g>
</g>
<g>
</g>
<g>
</g>
<g>
</g>
<g>
</g>
<g>
</g>
<g>
</g>
<g>
</g>
<g>
</g>
<g>
</g>
<g>
</g>
<g>
</g>
<g>
</g>
<g>
</g>
<g>
</g>
</svg>
